<svg width="18" height="20" viewBox="0 0 18 20" fill="none" xmlns="http://www.w3.org/2000/svg">
<rect width="18" height="20" fill="white"/>
<g clip-path="url(#clip0_0_1)">
<rect width="414" height="896" transform="translate(-58 -510)" fill="#F9F9F9"/>
<rect x="-30" y="-21" width="357" height="63" rx="10" fill="#F1F4FD"/>
<rect x="-14" y="-12" width="45" height="45" rx="10" fill="#C7D9FF"/>
<path d="M1 20H17C17.2652 20 17.5196 19.8946 17.7071 19.7071C17.8946 19.5196 18 19.2652 18 19V3C18 1.346 16.654 0 15 0H3C1.346 0 0 1.346 0 3V19C0 19.2652 0.105357 19.5196 0.292893 19.7071C0.48043 19.8946 0.734784 20 1 20ZM15 1.924C15.1313 1.924 15.2614 1.94987 15.3827 2.00012C15.504 2.05038 15.6142 2.12403 15.7071 2.21689C15.8 2.30975 15.8736 2.41999 15.9239 2.54132C15.9741 2.66264 16 2.79268 16 2.924C16 3.05532 15.9741 3.18536 15.9239 3.30668C15.8736 3.42801 15.8 3.53825 15.7071 3.63111C15.6142 3.72397 15.504 3.79762 15.3827 3.84788C15.2614 3.89813 15.1313 3.924 15 3.924C14.7348 3.924 14.4804 3.81864 14.2929 3.63111C14.1054 3.44357 14 3.18922 14 2.924C14 2.65878 14.1054 2.40443 14.2929 2.21689C14.4804 2.02936 14.7348 1.924 15 1.924ZM12 1.924C12.1313 1.924 12.2614 1.94987 12.3827 2.00012C12.504 2.05038 12.6142 2.12403 12.7071 2.21689C12.8 2.30975 12.8736 2.41999 12.9239 2.54132C12.9741 2.66264 13 2.79268 13 2.924C13 3.05532 12.9741 3.18536 12.9239 3.30668C12.8736 3.42801 12.8 3.53825 12.7071 3.63111C12.6142 3.72397 12.504 3.79762 12.3827 3.84788C12.2614 3.89813 12.1313 3.924 12 3.924C11.7348 3.924 11.4804 3.81864 11.2929 3.63111C11.1054 3.44357 11 3.18922 11 2.924C11 2.65878 11.1054 2.40443 11.2929 2.21689C11.4804 2.02936 11.7348 1.924 12 1.924ZM9 5C12.309 5 15 7.691 15 11C15 14.309 12.309 17 9 17C5.691 17 3 14.309 3 11C3 7.691 5.691 5 9 5Z" fill="#F9F9F9"/>
<path d="M9.76596 14.929C11.165 14.668 12.337 13.614 12.789 12.264C13.1162 11.3165 13.0614 10.2787 12.636 9.371C12.5893 9.27116 12.5099 9.19031 12.4109 9.14191C12.312 9.09351 12.1994 9.08048 12.092 9.105C11.488 9.254 11.073 9.553 10.592 9.906C9.80596 10.483 8.82696 11.2 6.99996 11.2C6.18696 11.2 5.54996 11.054 5.01596 10.846L5.00296 10.855C4.98181 11.4569 5.09667 12.0559 5.33899 12.6073C5.58131 13.1588 5.94486 13.6484 6.40258 14.0399C6.8603 14.4314 7.40041 14.7147 7.98272 14.8686C8.56504 15.0226 9.17457 15.0432 9.76596 14.929Z" fill="#F9F9F9"/>
</g>
<defs>
<clipPath id="clip0_0_1">
<rect width="414" height="896" fill="white" transform="translate(-58 -510)"/>
</clipPath>
</defs>
</svg>
