<svg width="16" height="22" viewBox="0 0 16 22" fill="none" xmlns="http://www.w3.org/2000/svg">
<rect width="16" height="22" fill="white"/>
<g clip-path="url(#clip0_0_1)">
<rect width="414" height="896" transform="translate(-59 -344)" fill="#F9F9F9"/>
<rect opacity="0.4" x="-30.5" y="-18.5" width="356" height="62" rx="9.5" fill="#D6E3FF" stroke="#EAEAEA"/>
<rect x="-30.5" y="-18.5" width="356" height="62" rx="9.5" fill="#F1F4FD" stroke="#EAEAEA"/>
<rect x="-15" y="-11" width="45" height="45" rx="10" fill="#C7D9FF"/>
<path d="M15 0C15.2652 0 15.5196 0.105357 15.7071 0.292893C15.8946 0.48043 16 0.734784 16 1V21C16 21.2652 15.8946 21.5196 15.7071 21.7071C15.5196 21.8946 15.2652 22 15 22H1C0.734784 22 0.48043 21.8946 0.292893 21.7071C0.105357 21.5196 0 21.2652 0 21V1C0 0.734784 0.105357 0.48043 0.292893 0.292893C0.48043 0.105357 0.734784 0 1 0H15ZM14 11H2V20H14V11ZM6 13V17H4V13H6ZM14 2H2V9H14V2ZM6 4V7H4V4H6Z" fill="#F9F9F9"/>
</g>
<defs>
<clipPath id="clip0_0_1">
<rect width="414" height="896" fill="white" transform="translate(-59 -344)"/>
</clipPath>
</defs>
</svg>
