<svg width="233" height="336" viewBox="0 0 233 336" fill="none" xmlns="http://www.w3.org/2000/svg">
<g opacity="0.05">
<g clip-path="url(#clip0_14_176)">
<path fill-rule="evenodd" clip-rule="evenodd" d="M171.982 237.032C170.779 235.168 169.003 235.234 167.889 233.715L166.389 231.408C165.743 230.534 165.217 230.495 164.816 229.358C164.551 228.608 164.356 227.003 163.91 226.447C163.397 225.807 162.614 225.27 162.127 224.611C161.565 223.849 161.442 222.992 161.03 222.077C160.485 220.866 160.211 220.922 159.371 220.115C158.724 219.492 157.496 216.359 156.825 215.226C156.19 214.152 155.699 214.391 155.12 213.122C154.676 212.15 154.525 211.524 153.787 210.828C152.24 209.37 150.219 209.783 147.467 209.783C130.444 209.783 113.422 209.783 96.3997 209.783C90.1141 209.783 87.1566 208.602 84.9323 212.888C85.3367 213.503 85.3783 213.253 85.7324 214.081C86.3834 215.603 86.5746 217.216 86.9727 218.845C87.8614 222.481 88.8762 221.873 89.6729 223.947C90.2857 225.544 91.0546 228.603 92.8133 228.783C97.7799 229.292 102.679 228.413 107.689 228.415C110.337 228.415 112.763 228.511 115.114 228.129C119.493 227.419 120.161 227.931 122.306 227.607C126.683 226.945 129.184 226.911 133.262 227.552C134.739 227.784 134.384 227.545 135.331 228.548L137.594 230.807C138.949 232.237 139.665 234.536 140.877 235.682C141.654 236.417 141.851 236.277 142.491 237.324C143.14 238.388 143.369 239.406 144.281 240.248C146.017 241.851 145.07 240.506 146.271 242.969C147.157 244.786 148.027 245.377 148.908 246.674C149.18 247.075 149.818 248.343 149.779 249.022C149.692 250.531 149.461 252.927 148.572 254.202C146.286 257.482 146.752 261.333 145.317 263.669C144.923 264.309 144.456 264.563 144 265.432C143.272 266.824 143.053 268.862 142.669 270.468C141.449 275.569 140.575 273.144 139.3 279.82C138.262 285.254 135.6 285.53 136.399 289.198C137.612 294.771 140.821 292.893 142.595 295.67C143.793 297.546 144.794 297.062 146.326 298.26C146.966 298.76 147.176 299.394 147.873 299.971C148.32 300.34 149.287 300.786 149.808 301.104C151.747 302.288 151.823 302.839 153.271 303.966C154.816 305.169 155.507 304.56 157.099 306.456C158.215 307.784 159.556 307.904 161.146 308.725C163.536 309.957 163.185 309.185 165.54 308.397C168.474 307.416 167.662 307.277 169.157 305.691C169.69 305.127 170.498 304.931 171.24 304.527C172.033 304.096 172.364 303.784 172.956 303.17C173.65 302.452 173.883 302.212 174.701 301.662C175.315 301.251 175.851 300.832 176.557 300.448C177.096 300.154 177.11 300.168 177.551 299.819C178.461 299.098 178.898 298.144 180.014 297.579C181.233 296.962 181.991 296.517 182.763 295.451C183.488 294.452 184.445 294.229 185.561 293.554C186.647 292.898 186.944 291.843 187.957 291.246C188.324 291.03 188.573 290.88 188.982 290.648C192.621 288.578 192.387 287.445 194.202 286.471C194.863 286.116 195.612 285.906 196.207 285.409C197.725 284.138 197.099 283.293 200.618 284.378C202.712 285.024 202.12 285.938 207.518 286.842C212.189 287.624 211.778 289.039 216.885 290.08C218.472 290.403 220.382 290.588 221.682 291.582C222.754 292.401 223.59 294.157 223.979 295.633C224.464 297.479 225.349 298.406 225.928 300.04C227.02 303.119 227.055 307.154 228.454 310.069C228.827 310.847 229.247 311.365 229.59 312.198C229.93 313.02 230.01 313.703 230.173 314.709C230.484 316.623 230.711 318.487 231.106 320.152C231.28 320.888 231.595 321.905 231.859 322.488C232.19 323.218 232.659 323.638 232.995 324.437C233.727 326.178 233.799 327.669 234.175 329.627C234.554 331.604 234.967 332.898 236.55 333.599C237.304 333.933 238.174 334.132 238.901 334.49L241.133 335.32C242.817 335.654 244.418 336.003 246.555 336.003H263.577C264.87 336.003 267.584 335.374 268.286 334.776C270.031 333.287 272.313 329.948 272.935 327.642C273.355 326.082 273.673 324.675 273.97 322.852C274.987 316.609 275.984 318.359 276.789 313.853C277.092 312.155 277.285 310.556 277.659 308.895C278.389 305.658 279.539 306.294 280.734 300.156C281.799 294.684 281.188 296.205 283.425 293.95C284.844 292.518 284.999 291.644 286.437 291.174C288.749 290.419 291.351 290.207 293.62 289.546C294.595 289.262 294.885 289.195 295.715 288.759C296.434 288.382 296.806 288.02 297.595 287.754C299.61 287.076 302.377 286.682 304.456 285.981C304.851 285.847 305.18 285.747 305.508 285.592C305.657 285.521 306.401 285.041 306.401 285.041C306.83 285.041 309.695 285.494 309.964 285.611C310.355 285.779 310.717 286.115 311.181 286.38C312.282 287.007 313.599 287.238 314.299 288.316C315.52 290.201 317.043 289.901 318.35 291.309C318.767 291.759 318.672 291.99 319.161 292.493C319.851 293.205 320.767 293.464 321.601 294.023C322.47 294.605 322.932 295.237 323.702 295.9C325.871 297.769 327.405 297.579 328.449 299.28C329.023 300.215 329.606 300.533 330.651 301.054C331.761 301.606 332.107 301.897 332.81 302.871C333.626 304 335.345 304.486 336.459 305.362L337.025 305.881C338.895 307.911 340.147 308.121 342.527 309.223C344.284 310.036 344.631 311.624 346.492 309.653C347.616 308.462 349.464 308.212 350.622 307.105C351.843 305.937 351.135 305.754 352.983 304.945C357.017 303.179 356.067 302.581 358.146 301.257C359.529 300.376 360.398 300.348 361.535 299.049C362.481 297.969 363.707 297.732 364.82 296.918L365.959 295.888C366.145 295.694 366.117 295.717 366.314 295.519C369.597 292.224 372.094 294.028 370.86 288.195C370.617 287.044 369.72 286.362 369.312 285.389C368.44 283.309 368.329 280.382 367.388 278.401C366.889 277.351 366.162 276.589 365.71 275.545C364.795 273.431 364.819 270.618 363.864 268.477C363.634 267.96 363.358 267.353 363.049 266.932C362.09 265.622 361.59 263.705 361.247 262.011C360.231 256.99 359.406 258.079 358.606 255.753C357.274 251.878 357.844 253.071 357.829 250.155C357.814 247.091 358.939 247.455 360.088 245.882C361.65 243.743 361.713 243 363.879 240.796C364.678 239.984 364.979 238.848 365.531 237.914C366.119 236.92 367.073 236.827 367.726 235.768C369.141 233.471 368.372 233.899 370.42 231.756C371.177 230.963 371.606 229.99 372.383 229.191C372.835 228.727 372.967 228.439 373.588 228.227C374.128 228.043 374.66 227.967 375.279 227.759C375.669 227.628 375.724 227.615 376.068 227.468C376.55 227.263 376.348 227.138 376.82 227.138C379.709 227.138 383.049 227.277 385.649 227.636C387.803 227.934 388.93 227.47 393.069 228.109C395.282 228.45 398.312 228.153 400.836 228.228C402.077 228.265 403.073 228.604 404.408 228.606C406.861 228.609 409.615 228.335 412.016 228.705C417.473 229.545 416.345 227.661 418.9 224.187C420.366 222.194 420.385 221.081 421.007 218.298C422.074 213.525 424.196 213.717 422.557 211.384C421.748 210.233 420.007 210.121 418.561 209.986C416.058 209.753 400.041 209.969 396.71 209.969C392.574 209.969 360.609 210.257 356.901 209.808C354.383 209.503 351.296 211.363 350.195 214.061C349.972 214.608 349.895 214.818 349.686 215.368C348.682 218.009 348.471 216.995 347.462 218.581C346.686 219.8 345.904 222.745 345.027 223.588C342.906 225.628 343.395 225.128 342.311 228.126C341.85 229.4 341.323 229.389 340.728 230.348C340.144 231.288 340.201 231.852 339.14 232.382C338.066 232.918 337.662 232.758 336.929 233.782C336.237 234.748 336.52 235.226 335.398 235.874C334.387 236.459 333.865 236.41 333.22 237.49C331.925 239.658 330.748 239.771 329.645 241.334C328.362 243.153 327.465 242.843 325.86 244.965C324.628 246.594 322.873 246.694 321.811 248.144C321.133 249.071 320.912 249.199 319.764 249.71C316.864 250.999 318.455 251.508 315.6 252.955C309.535 256.028 313.362 255.507 308.706 257.07C307.561 257.454 306.596 258.053 305.792 258.848C303.981 260.64 301.16 260.59 299.129 262.102C295.903 264.503 294.951 263.894 291.325 265.105C290.701 265.314 290.451 265.368 289.944 265.707C289.527 265.986 289.337 266.272 288.933 266.503C286.506 267.893 282.869 267.799 280.302 268.664C278.279 269.346 277.306 270.265 274.86 270.606C272.914 270.876 270.456 271.277 268.415 271.342L258.153 272.023C256.501 272.254 245.623 272.007 243.819 271.758L237.059 271.16C236.014 271.095 234.806 270.926 233.818 270.811C232.664 270.676 231.706 270.538 230.526 270.33C229.124 270.084 229.112 269.717 228.044 269.207C224.741 267.629 219.598 268.382 216.454 266.045C214.839 264.846 213.022 264.739 211.051 264.063C207.601 262.879 208.175 262.264 206.421 261.477C205.175 260.919 201.707 260.239 200.89 259.626C200.085 259.022 199.953 258.358 198.902 257.818C197.244 256.966 195.524 256.528 194.19 255.132C192.557 253.424 190.911 253.613 189.652 252.451C188.885 251.743 188.941 251.287 187.86 250.624C187.329 250.299 187.07 250.266 186.561 249.939C184.727 248.764 183.365 247.004 181.515 245.767C179.077 244.137 179.885 243.528 177.512 242.359C175.863 241.546 176.614 241.865 175.776 240.475C175.438 239.914 174.577 239.026 173.931 238.703C173.371 238.422 173.177 238.479 172.74 238.091C172.427 237.813 172.238 237.43 171.984 237.035L171.982 237.032Z" fill="#1F319D"/>
<path fill-rule="evenodd" clip-rule="evenodd" d="M162.518 8.49138C161.958 9.34351 161.863 9.41482 160.981 10.0306C159.751 10.8902 158.23 11.0902 157.32 12.3263C155.934 14.211 154.197 14.0954 152.17 16.0265C150.578 17.5423 148.223 18.1586 147.034 19.7412C145.925 21.2186 143.977 21.3223 142.761 22.691C141.019 24.6501 141.901 23.4654 140.349 24.7992C138.358 26.51 138.483 26.3908 138.504 28.3987C138.529 30.7547 139.412 33.6397 140.094 35.7339C140.664 37.4845 141.264 38.2145 142.035 39.7827C143.381 42.5186 143.405 46.1286 145.03 48.6023C146.725 51.1811 146.543 54.7203 147.94 57.5096C148.874 59.3764 149.224 59.4721 149.759 61.682C150.947 66.5849 151.111 64.3387 150.874 68.9569C150.817 70.0887 150.598 70.358 150.12 71.1104C149.361 72.3056 148.501 73.1383 147.668 74.2731C147.212 74.8939 146.885 75.3377 146.571 76.0776C145.804 77.8876 145.375 77.6458 144.255 78.8305C143.605 79.5186 143.371 80.092 142.927 80.9481C142.087 82.5716 141.183 82.6514 140.304 84.1188C138.729 86.7506 138.718 86.7211 136.58 88.9071C135.377 90.1367 135.09 90.9095 133.328 91.2551C130.551 91.7986 127.396 91.6016 124.53 91.6016C122.913 91.6016 121.707 91.1838 120.121 90.9674C118.675 90.7694 117.497 91.0536 115.929 91.0536C111.716 91.0536 108.13 90.3755 103.917 90.3301C102.831 90.3187 102.178 90.1347 100.878 90.1397C91.5168 90.1751 91.9046 88.2469 89.9097 94.6681C89.4445 96.165 88.416 97.4858 87.8003 98.9104C87.2246 100.242 86.1638 104.862 85.9755 106.732L85.4683 109.32C87.0275 109.355 88.2003 110.05 90.1268 110.05H148.182C148.862 110.05 149.748 109.698 150.308 109.478C152.445 108.636 153.587 108.134 154.431 105.461C154.994 103.673 155.583 103.4 156.464 102.055C157.158 100.996 157.635 99.7456 158.159 98.4851C158.771 97.0136 159.767 97.1203 160.606 95.4998C161.332 94.0957 161.346 93.2152 162.47 92.1022C163.341 91.2391 164.095 89.9776 164.669 88.8642C165.068 88.0908 165.134 87.843 165.42 86.8897C165.627 86.1976 165.914 85.874 166.356 85.2871C167.4 83.9039 167.094 82.8893 168.902 82.4026C171.268 81.7659 170.43 81.3221 171.802 80.0611C172.96 78.996 173.876 79.4164 174.955 77.7959C177.038 74.669 177.571 75.8503 178.923 73.8039C180.245 71.804 180.882 72.4427 183.166 70.0917C184.528 68.6906 186.39 67.9387 187.824 66.6218C189.954 64.6672 190.937 64.6877 192.521 63.3718C193.216 62.7934 193.065 62.5351 193.903 62.0415L197.457 60.3677C199.661 59.2667 198.132 59.1984 202.475 57.4457C205.525 56.2147 206.144 54.828 209.602 53.9345C214.259 52.7308 213.001 52.4062 215.191 51.4115C218.131 50.0772 220.899 50.8959 225.231 48.3131C227.248 47.1104 231.185 47.2121 233.956 46.7958C235.389 46.5808 237.012 46.3266 238.636 46.0857C243.05 45.43 248.886 45.0222 253.36 45.0222C260.897 45.0222 270.304 46.2976 277.859 47.4474C280.423 47.8374 281.937 49.2634 286.165 50.1215C292.452 51.3975 290.855 52.1404 294.19 53.2663C295.822 53.8178 298.146 54.0915 299.635 55.0225C300.196 55.3735 300.131 55.4782 300.569 55.896C302.235 57.4851 305.242 57.4408 306.804 58.8553C307.695 59.6626 307.744 59.9368 308.903 60.5516C310.563 61.4317 312.335 61.8062 313.699 63.1514C314.987 64.4214 316.91 64.766 318.087 65.9846C318.689 66.6084 319.102 67.3244 319.888 67.8011C322.949 69.6574 322.504 70.3605 323.955 71.1453C325.852 72.1729 326.541 73.1313 328.105 74.4028L334.08 80.3672C334.949 81.1411 336.057 81.4537 337.032 82.1074C337.464 82.3971 337.599 82.6968 338.031 82.9157C338.765 83.2877 339.803 83.4382 340.207 84.3512C340.566 85.1654 340.408 86.6862 340.663 87.7219C340.892 88.6533 341.722 88.9948 342.267 89.7478C342.883 90.5984 343.123 91.9601 343.871 92.8531C345.307 94.5664 345.275 93.5727 346.653 96.4103C347.393 97.9356 347.995 98.5828 348.868 99.8144C349.649 100.915 349.983 102.322 350.591 103.538C351.156 104.667 352.758 106.667 353.602 107.958C353.879 108.383 354.151 108.76 354.413 109.141C355.455 110.656 356.673 110.035 358.537 110.047L409.606 110.049C414.397 110.049 416.897 110.238 421.382 109.604C421.581 109.576 422.507 109.575 422.507 109.136C422.507 107.282 421.847 105.348 421.396 103.51C420.786 101.03 420.344 98.133 419.34 95.7426C419.017 94.9738 418.568 94.4642 418.146 93.6719C417.49 92.4423 416.768 90.396 415.295 90.016C415.172 89.9846 398.67 90.565 396.836 90.8193C395.98 90.9385 394.573 90.9808 393.829 91.0422L381.294 91.5986C378.032 91.5872 376.187 92.2189 373.236 90.6827L372.073 89.6764C371.442 88.9151 370.8 87.873 370.136 87.2671C368.445 85.7224 368.577 85.5953 367.445 83.4352C366.66 81.9399 366.2 82.804 364.597 79.7629C363.703 78.0676 362.656 77.6059 361.73 76.1095C358.428 70.7753 357.553 71.961 358.187 67.1294C358.464 65.0247 359.495 64.3327 360.208 62.6129C361.113 60.428 361.348 56.6754 362.372 54.9561C362.822 54.2002 363.295 53.8258 363.664 52.9861C364.27 51.6104 364.668 49.4644 365.061 47.8339C365.712 45.1319 366.344 45.1648 367.07 43.3064C367.698 41.6994 367.978 39.9183 368.469 38.1562C369.237 35.3938 372.001 31.8596 371.632 30.0432C371.029 27.0734 370.826 26.5783 368.406 25.1024C366.402 23.8802 366.431 23.8194 364.772 22.2293C363.646 21.1493 362.06 21.1244 360.732 19.7731C359.137 18.1506 358.394 18.2404 356.978 17.0242C355.623 15.859 355.21 15.0138 353.407 14.0894C351.476 13.0991 351.954 13.2098 350.699 11.9179C349.762 10.9536 348.878 10.595 347.546 10.2001C344.218 9.21338 345.83 9.10618 342.656 10.7461C339.881 12.1792 339.663 13.1973 338.233 13.9104C335.283 15.3818 336.523 15.1544 335.115 16.577C334.743 16.9539 334.445 17.0138 334.002 17.2686C331.19 18.8856 330.511 20.3789 327.417 22.0633C326.534 22.5439 326.155 23.238 325.439 23.8832C324.755 24.5005 323.82 24.7493 323.022 25.2549C321.938 25.9425 321.936 26.3185 321.144 27.1761C320.557 27.8123 320.72 27.6184 319.972 27.9904C317.942 29.0011 316.642 31.004 314.645 32.0586C313.887 32.4595 312.832 32.8903 312.135 33.336C309.635 34.9346 310.828 35.8351 304.965 33.1501C302.706 32.1154 299.462 32.0995 297.055 30.9846C296.343 30.6545 295.643 30.2197 294.934 29.8592C292.078 28.4057 287.759 28.5792 285.382 26.2621C283.917 24.8331 283.671 22.2428 282.927 20.1805C282.199 18.1631 281.316 16.2494 280.85 14.0774C280.635 13.0737 280.509 12.3447 280.313 11.3375C279.895 9.17897 279.548 7.92395 278.59 6.33535C276.887 3.50868 277.272 -1.4416 275.879 -4.41786C275.184 -5.90374 274.449 -7.38514 274.098 -9.17717C273.464 -12.4137 273.745 -14.5742 270.382 -15.4358C269.448 -15.6752 268.861 -16.0402 267.979 -16.2745C264.463 -17.2089 253.496 -17.0997 249.05 -16.7248C247.09 -16.5592 244.139 -17.0673 242.822 -16.6859C241.305 -16.2471 239.451 -15.7335 238.519 -14.3095C238.014 -13.5376 237.717 -13.1816 237.484 -12.0761C236.804 -8.8436 237.1 -9.81989 235.737 -7.09943C234.55 -4.73199 234.27 -1.90781 233.832 0.822123C233.519 2.77322 232.647 3.91755 231.959 5.67169C230.363 9.74141 231.122 11.9658 228.933 15.9208C226.8 19.7741 228.42 23.6225 225.193 25.6244L223.896 26.6775C222.985 27.4763 222.402 27.7356 221.033 27.9594C219.054 28.282 217.26 28.5294 215.486 29.0639C214.709 29.2977 213.826 29.6632 213.195 30.0162C212.397 30.462 212.087 30.8544 211.078 31.1461C208.526 31.8831 205.654 32.0676 203.244 33.2064C202.635 33.4941 201.881 34.4295 201.218 34.4295C200.702 34.4295 196.178 32.0725 195.721 31.8143C192.353 29.9085 193.899 29.6612 191.126 28.2786C188.377 26.9079 190.452 26.7717 186.461 24.8147C186.01 24.5933 185.592 24.3405 185.238 24.0523C184.011 23.0545 185.084 23.4031 182.011 21.3143C180.143 20.0454 178.687 18.3147 177.508 17.6844C175.156 16.4279 175.371 15.503 172.845 14.2175C171.574 13.5698 170.992 12.6798 170.026 11.7947C169.874 11.6556 169.679 11.522 169.509 11.4078C167.297 9.91344 165.352 8.63697 162.516 8.49138H162.518Z" fill="#1F319D"/>
<path fill-rule="evenodd" clip-rule="evenodd" d="M208.746 232.249C207.888 232.249 205.12 231.218 204.65 230.398L203.676 228.284C203.156 227.09 203.287 227.375 203.367 226.045C203.509 223.674 203.03 222.64 205.627 220.667C206.062 220.336 207.22 219.098 208.388 219.098C211.775 219.098 212.091 219.075 213.259 220.891C214.348 222.586 215.08 222.061 215.788 223.244C216.075 223.724 216.092 223.849 216.101 224.569C216.117 225.821 216.392 226.802 216.08 227.666C215.723 228.657 215.48 228.931 214.789 229.644C213.918 230.543 214.606 230.427 213.23 231.341C211.492 232.497 211.092 232.25 208.746 232.25L208.746 232.249ZM195.845 226.77C195.845 230.723 197.338 230.894 198.535 233.343C198.835 233.957 199.091 234.727 199.496 235.286C200.458 236.615 201.765 236.727 203.092 237.649C203.771 238.121 204.048 238.653 204.768 239.046C205.428 239.406 206.173 239.486 207.029 239.663C208.46 239.96 210.925 239.939 212.34 239.566C213.955 239.139 214.818 238.203 216.17 237.442C221.537 234.416 221.008 231.744 222.778 230.479C223.217 230.166 223.191 230.235 223.582 229.838C224.085 229.325 224.425 228.826 224.757 228.113C225.977 225.498 226.429 226.659 227.533 224.915C227.986 224.201 228.096 223.548 228.6 222.897C229.185 222.143 229.557 222.226 230.211 221.617C231.03 220.854 230.906 220.733 231.444 219.768C232.381 218.088 233.488 218.061 234.339 216.693C234.904 215.785 235.474 214.846 236.298 214.123C238.11 212.534 239.276 210.152 241.18 208.688C242.37 207.773 242.787 206.422 243.969 205.503C246.055 203.883 245.694 202.26 247.539 201.288C248.491 200.787 249.19 200.064 249.661 199.068C250.48 197.339 251.637 197.747 252.644 196.08C253.11 195.309 253.08 194.806 253.866 194.221C254.574 193.696 254.967 193.818 255.548 193.014C256.012 192.372 256.143 191.638 256.635 191.015C257.289 190.186 257.515 190.338 258.307 189.798C259.78 188.795 259.642 187.349 261.006 186.521C262.992 185.315 262.468 184.673 263.793 183.335C264.386 182.736 265.024 182.508 265.501 181.971C265.95 181.466 266.241 180.733 266.618 180.187C267.655 178.689 268.625 179.068 269.659 177.259C270.409 175.947 271.608 175.338 272.582 174.211L274.528 171.629C274.98 171.08 274.699 171.36 275.25 170.903C276.31 170.021 276.682 168.369 277.267 166.931C278.109 164.859 278.984 165.197 280.089 163.781L284.33 158.971C285.442 158.073 286.879 157.521 288.119 156.805C288.525 156.571 289.559 155.938 289.559 155.35C289.559 152.005 290.254 152.48 287.584 150.422C286.049 149.238 286.606 149.029 284.502 147.719C283.281 146.958 282.778 145.676 282.033 144.664C280.715 144.657 278.754 144.447 277.847 145.604C277.423 146.144 277.05 146.602 276.688 147.162C274.621 150.366 277.03 147.76 273.294 151.557C272.753 152.107 272.61 152.518 272.045 153.022L269.36 155.583C268.748 156.192 268.575 156.189 267.851 156.603C263.601 159.03 264.556 160.038 262.482 161.723C261.403 162.6 260.777 162.838 259.678 163.979C256.373 167.406 257.659 165.782 253.683 168.461C252.398 169.327 252.287 170.23 251.164 171.191C250.64 171.64 250.148 171.797 249.648 172.203C248.642 173.021 248.334 174.226 247.198 175.002C246.441 175.52 246.404 175.315 245.698 176.03C244.598 177.143 244.539 177.723 243.047 178.625C241.545 179.533 241.597 180.376 240.514 181.339C239.393 182.336 238.628 181.969 237.593 183.477C235.913 185.925 235.104 184.97 233.65 187.493C232.999 188.622 231.544 188.815 230.753 189.837C229.378 191.613 230.566 191.196 228.25 192.401C227.62 192.729 227.281 192.973 226.794 193.474C224.758 195.571 226.629 193.997 224.052 195.976C222.5 197.168 221.418 198.517 219.859 199.739C219.353 200.135 218.935 200.392 218.383 200.791C217.841 201.182 218.116 200.931 217.731 201.405C215.17 204.56 215.242 202.939 212.996 205.71C212.479 206.348 212.254 206.568 211.464 206.889C209.438 207.711 209.88 208.189 208.74 209.411C208.247 209.938 207.731 210.02 207.131 210.325C205.827 210.986 205.408 211.705 204.406 212.662C202.026 214.934 200.857 214.201 198.948 217.693L196.916 220.918C195.98 222.75 195.847 224.56 195.847 226.769L195.845 226.77Z" fill="#1F319D"/>
<path fill-rule="evenodd" clip-rule="evenodd" d="M6.10352e-05 180.374C6.10352e-05 180.969 0.449526 181.623 0.759603 181.974C1.20173 182.473 1.63701 182.603 2.34667 182.73C3.922 183.013 4.74463 183.115 6.62954 183.114L139.394 183.123C140.027 183.177 140.69 183.442 141.516 183.263C142.349 183.082 143.525 181.603 143.525 180.556V173.615C143.525 172.566 142.305 170.872 141.557 170.789C140.652 170.689 138.445 171.067 137.257 171.062C103.122 170.919 68.7398 171.058 34.5819 171.058C30.2189 171.058 5.99961 170.783 2.24494 171.337C1.16994 171.496 1.21005 171.399 0.705804 172.142C0.445124 172.527 6.10352e-05 173.158 6.10352e-05 173.798V180.374H6.10352e-05Z" fill="#1F319D"/>
<path fill-rule="evenodd" clip-rule="evenodd" d="M203.55 130.873C203.55 130.445 204.348 129.667 204.721 129.509C205.451 129.198 207.301 129.229 208.209 129.229C208.68 129.229 209.822 130.316 209.822 130.873C209.822 133.276 210.211 134.427 208.762 135.46C208.064 135.959 204.844 135.61 204.506 135.379C203.19 134.48 203.55 132.745 203.55 130.873V130.873ZM243.329 136.353C243.909 136.353 244.719 135.403 244.999 134.935C245.446 134.187 245.167 133.598 244.637 133.01C243.503 131.753 242.932 132.696 241.594 130.266C240.621 128.498 239.534 128.715 238.594 127.297C236.859 124.678 237.067 125.872 235.576 124.528C234.191 123.28 235.228 122.992 232.696 121.436C231.218 120.528 231.242 119.228 229.97 118.37C227.05 116.403 228.494 116.901 227.074 115.294C226.043 114.127 225.395 114.764 224.081 112.501C223.064 110.75 222.071 111.076 221.001 109.612L219.935 107.959C219.3 107.28 218.995 107.016 217.886 106.944C211.674 106.538 214.284 107.82 212.299 109.834C211.821 110.318 212.042 110.181 211.433 110.412C208.72 111.447 210.483 112.913 207.696 114.091C205.688 114.941 206.382 116.351 205.068 117.258C204.216 117.846 204.016 117.439 203.226 118.302C201.794 119.863 203.363 119.892 200.411 121.278C198.677 122.093 199.349 123.758 197.721 124.563C196.878 124.98 196.487 124.775 195.912 125.642C195.394 126.424 195.6 126.805 194.917 127.549C194.146 128.389 194.034 128.098 193.092 128.612C192.057 129.174 192.315 129.521 191.877 130.478C191.6 131.084 191.094 131.567 190.362 131.857C187.851 132.848 189.206 133.575 187.657 134.945C186.969 135.553 186.324 135.45 185.674 136.029C184.94 136.682 185.155 137.242 184.689 137.948C183.639 139.541 182.328 138.268 181.52 140.57C181.194 141.497 181.818 144.473 182.297 145.231C182.697 145.863 183.208 146.212 183.806 146.616C184.415 147.028 184.862 147.438 185.304 148.011C187.848 151.302 186.777 149.462 188.283 151.003C188.816 151.549 189.081 152.044 189.546 152.638C190.123 153.377 190.387 153.41 191.116 153.961C192.42 154.948 192.706 156.166 193.947 157.102C194.665 157.644 194.928 157.706 195.532 158.408C196.006 158.958 196.298 159.532 196.781 160.058C197.842 161.216 198.048 160.503 199.786 163.023C200.676 164.312 201.789 164.552 202.762 165.835C205.076 168.885 204.659 167.608 205.651 168.733C207.096 170.37 206.337 170.387 208.389 171.788L209.234 171.189C209.401 171.052 209.834 170.625 209.96 170.467C211.391 168.662 209.809 161.281 211.246 155.886C211.57 154.669 212.076 154.585 212.66 153.675C213.678 152.089 214.266 149.382 214.745 148.494C215.22 147.615 216.062 147.432 216.677 146.81C217.452 146.027 217.394 145.241 218.012 144.518C218.79 143.607 219.368 143.727 220.167 143.063C221.352 142.078 221.286 141.558 221.775 141.049C222.562 140.229 225.3 140.133 227.547 138.164C230.5 135.576 239.207 136.353 243.329 136.353H243.329Z" fill="#1F319D"/>
<path fill-rule="evenodd" clip-rule="evenodd" d="M147.825 138.728C147.825 137.364 147.167 136.989 146.274 136.473C145.362 135.945 144.628 135.848 143.193 136.014C140.414 136.336 124.986 136.17 121.486 136.17C96.1841 136.17 70.1987 136.377 44.9734 136.169C43.1467 136.154 43.2509 136.053 42.3207 137.117C41.6453 137.89 41.7411 138.804 41.7494 140.188C41.7577 141.636 41.5709 142.401 41.5616 143.655C41.5469 145.647 42.2771 148.736 43.584 149.095C44.2878 149.289 118.321 149.139 123.636 149.139C126.546 149.139 139.697 148.962 141.903 149.148C142.799 149.223 144.144 149.542 145.245 149.247C148.59 148.353 147.826 141.429 147.826 138.727L147.825 138.728Z" fill="#1F319D"/>
<path fill-rule="evenodd" clip-rule="evenodd" d="M208.209 97.2639C207.758 97.8912 205.655 100 204.758 100.322C204.468 100.426 204.05 100.482 203.815 100.64C202.992 101.192 203.423 103.08 200.764 104.104C199.738 104.499 200 104.899 199.687 105.563C198.619 107.832 196.828 107.191 196.286 108.673C195.962 109.558 196.505 108.922 195.266 110.19C194.545 110.927 194.809 110.837 193.732 111.183C192.601 111.546 192.998 111.652 192.644 112.631C192.393 113.322 191.893 113.62 191.416 114.12C190.423 115.162 190.675 114.467 189.817 115.046C189.205 115.459 189.283 116.949 187.602 117.903C186.799 118.359 186.249 118.013 185.805 118.811C185.497 119.363 185.607 120.206 184.391 121.205C184.365 121.227 184.019 121.487 183.975 121.513C183.667 121.691 183.968 121.558 183.605 121.683C182.683 121.999 182.496 121.692 182.159 122.765C181.695 124.239 181.06 124.957 179.552 125.405C178.55 125.703 178.879 125.988 178.514 126.904C177.734 128.857 175.928 129.101 175.668 129.301C175.228 129.637 175.149 130.504 174.874 131.049C173.131 134.502 172.145 133.321 175.11 137.4C177.341 140.471 177.274 138.43 179.514 137.423C180.07 137.172 180.682 136.991 181.28 136.666C182.957 135.756 182.447 134.649 183.425 133.738C184.277 132.944 185.351 133.394 186.247 131.318C187.177 129.162 187.72 130.141 188.995 129.004C190.14 127.985 189.412 126.905 191.34 126.098C193.285 125.282 193.025 124.261 193.659 123.347C194.421 122.246 195.722 122.441 196.562 121.01C197.002 120.259 196.784 120.045 197.489 119.398C198.025 118.905 198.465 118.913 199.116 118.499C200.599 117.554 200.027 116.295 201.405 115.535C202.03 115.191 202.512 115.168 203.031 114.635C203.448 114.206 203.658 113.622 203.964 113.029C204.82 111.371 205.703 112.064 206.81 110.633C207.316 109.978 207.301 109.556 207.666 108.95C208.076 108.268 208.495 108.353 209.23 107.987C209.877 107.664 210.222 107.26 210.619 106.663C211.071 105.984 211.036 105.543 211.479 104.983C212.327 103.91 214.853 102.449 212.544 100.517C212.085 100.133 211.544 99.8906 211.002 99.5326C209.418 98.4865 209.752 98.3185 208.209 97.2649V97.2639Z" fill="#1F319D"/>
<path fill-rule="evenodd" clip-rule="evenodd" d="M225.769 144.938C223.965 148.413 223.312 146.41 221.188 149.219C220.463 150.178 218.894 151.529 218.695 151.975C218.576 152.243 218.239 154.871 218.247 155.182C218.265 155.917 218.474 155.827 218.901 156.322C219.844 157.417 219.984 157.823 221.467 158.821C221.818 159.057 222.193 159.335 222.551 159.543C222.96 159.781 223.16 159.845 223.572 160.146C225.755 161.739 224.683 161.923 227.003 163.773C227.601 164.251 228.146 164.922 228.679 165.535C230.142 167.215 230.585 167.453 231.52 169.762C232.006 170.962 233.19 171.181 234.693 173.469C235.814 175.176 236.493 175.731 238.352 174.023C240.188 172.336 241.667 173.005 243.147 170.143C243.572 169.319 243.866 169.227 244.369 168.467C246.77 164.842 245.187 166.866 246.116 164.402C246.512 163.352 246.833 163.784 247.091 162.656C245.721 161.986 244.895 162.524 243.98 160.896C243.617 160.25 243.574 159.589 243.204 159.13C242.729 158.54 239.71 156.842 239.096 156.012C238.369 155.028 237.875 154.094 237.134 153.079C235.439 150.755 233.264 151.113 231.457 149.002C228.228 145.229 230.679 147.468 227.32 145.732C226.749 145.437 226.332 145.271 225.768 144.939L225.769 144.938Z" fill="#1F319D"/>
<path fill-rule="evenodd" clip-rule="evenodd" d="M173.222 128.451C174.907 127.589 173.952 127.848 174.753 126.723C174.997 126.381 175.576 125.872 175.909 125.527C176.564 124.845 176.329 125.033 177.193 124.645C178.133 124.222 177.657 124.263 178.115 123.392L179.754 121.593C180.902 120.551 180.885 121.784 181.538 120.124C181.845 119.346 182.959 118.117 183.669 117.729C184.642 117.199 184.472 117.811 184.946 116.656C185.267 115.874 186.254 114.847 186.932 114.298C187.552 113.797 187.829 114.04 188.277 113.477C188.72 112.918 188.451 112.748 189.166 112.008C191.212 109.888 191.065 110.708 191.685 110.009C192.051 109.597 192.101 109.127 192.487 108.636C192.869 108.153 193.819 107.347 194.393 107.108C196.523 106.217 195.101 105.303 197.509 103.527C198.91 102.493 197.869 104.298 199.163 101.925C199.48 101.344 200.769 100.065 201.351 99.7715C202.27 99.3088 202.076 99.6548 202.554 98.6227C203.091 97.4629 205.021 95.3801 205.343 94.8895C204.504 93.612 203.072 90.927 202.464 90.3346C201.517 89.4112 201.006 89.2776 199.422 90.4972C198.744 91.0187 198.998 91.1788 198.106 91.7133C196.76 92.5201 196.098 92.7385 195.272 94.1211C193.944 96.343 194.398 94.8182 192.572 96.6666C191.922 97.3258 191.941 97.244 191.49 98.1201C191.117 98.845 190.801 98.9179 190.146 99.3073C188.135 100.502 188.576 100.906 187.715 102.126C187.122 102.965 185.772 102.957 184.852 104.505C183.574 106.657 184.823 105.393 182.905 106.538C180.986 107.683 181.404 109.083 179.903 109.871C178.667 110.521 178.191 111.012 177.546 112.217C177.465 112.369 177.433 112.461 177.366 112.582C176.77 113.676 175.441 113.641 174.518 114.975C174.188 115.452 173.862 116.335 173.483 116.661C173.115 116.977 172.421 117.217 171.906 117.61C170.336 118.808 170.623 119.91 169.684 120.459C169.005 120.855 168.941 120.596 168.022 121.504C166.48 123.028 167.049 123.568 166.06 124.619C165.036 125.707 164.208 126.838 165.238 127.915C165.708 128.406 166.085 128.621 166.696 128.99C167.77 129.638 168.891 130.208 169.865 130.873L173.223 128.451H173.222Z" fill="#1F319D"/>
</g>
</g>
<defs>
<clipPath id="clip0_14_176">
<rect width="508" height="353" fill="white" transform="translate(0 -17)"/>
</clipPath>
</defs>
</svg>
