<svg width="31" height="27" viewBox="0 0 31 27" fill="none" xmlns="http://www.w3.org/2000/svg">
<path d="M8.69599 10.64C7.62059 10.64 6.75176 11.4941 6.75176 12.5106C6.75176 13.6293 7.62059 14.4894 8.69599 14.4894C9.7714 14.4894 10.5855 13.6323 10.5855 12.5647C10.5855 11.4971 9.77747 10.64 8.69599 10.64ZM15.5008 10.5859C14.4224 10.5859 13.6113 11.443 13.6113 12.5106C13.6113 13.5782 14.4771 14.3812 15.5008 14.3812C16.5246 14.3812 17.3904 13.5241 17.3904 12.5106C17.3904 11.4971 16.5823 10.5859 15.5008 10.5859ZM22.3056 10.64C21.2272 10.64 20.4161 11.4971 20.4161 12.5647C20.4161 13.6323 21.2819 14.4894 22.3056 14.4894C23.3841 14.4894 24.2493 13.6323 24.2493 12.5647C24.2499 11.4941 23.3871 10.64 22.3056 10.64ZM15.5008 0C6.90973 0 0.00162363 5.60089 0.00162363 12.5106C0.00162363 15.3748 1.2113 17.999 3.21629 20.1072C2.31283 22.483 0.429355 24.4907 0.398976 24.5129C-0.00347998 24.934 -0.109745 25.5505 0.118035 26.0767C0.300428 26.6511 0.820632 27 1.40512 27C5.14108 27 8.03374 25.4512 9.85646 24.2182C11.6105 24.7595 13.5116 25.0753 15.5008 25.0753C24.0919 25.0753 31 19.4738 31 12.6188C31 5.76389 24.0919 0 15.5008 0ZM15.5008 22.1882C13.8756 22.1882 12.2734 21.9401 10.7399 21.4593L9.35764 21.0307L8.17348 21.8574C7.30769 22.4661 6.11563 23.1434 4.68054 23.6017C5.12857 22.8727 5.55363 22.0529 5.88779 21.1808L6.53303 19.4967L5.28022 18.1812C4.18841 17.0216 2.86694 15.1029 2.86694 12.5647C2.86694 7.25674 8.53195 2.94119 15.4498 2.94119C22.3676 2.94119 28.0326 7.25674 28.0326 12.5647C28.0326 17.8727 22.4758 22.1882 15.5008 22.1882Z" fill="#F9F9F9"/>
</svg>
