<svg width="24" height="30" viewBox="0 0 24 30" fill="none" xmlns="http://www.w3.org/2000/svg">
<path d="M15.7367 14.6925C16.4847 13.5397 16.7901 12.1412 16.5934 10.7691C16.3967 9.397 15.712 8.14941 14.6726 7.26913C13.6332 6.38885 12.3134 5.93884 10.97 6.00667C9.62662 6.07449 8.35575 6.65531 7.40469 7.63609C6.45363 8.61686 5.89042 9.92745 5.82465 11.3128C5.75888 12.6982 6.19525 14.0593 7.04885 15.1311C7.90246 16.203 9.11224 16.9091 10.4428 17.1119C11.7733 17.3148 13.1294 16.9999 14.2473 16.2285L17.8487 19.941L17.9462 20.028L17.9578 20.037C18.1716 20.1969 18.4357 20.2681 18.698 20.2366C18.9603 20.2051 19.2015 20.0731 19.3738 19.8669C19.5462 19.6606 19.6372 19.3951 19.6287 19.123C19.6202 18.8508 19.5129 18.5919 19.328 18.3975L15.7353 14.6925H15.7367ZM11.2349 8.1705C12.1131 8.1705 12.9553 8.53027 13.5763 9.17066C14.1973 9.81105 14.5462 10.6796 14.5462 11.5853C14.5462 12.4909 14.1973 13.3595 13.5763 13.9998C12.9553 14.6402 12.1131 15 11.2349 15C10.3567 15 9.51447 14.6402 8.89349 13.9998C8.2725 13.3595 7.92364 12.4909 7.92364 11.5853C7.92364 10.6796 8.2725 9.81105 8.89349 9.17066C9.51447 8.53027 10.3567 8.1705 11.2349 8.1705ZM3.63636 0C2.67194 0 1.74702 0.395088 1.06507 1.09835C0.383116 1.80161 0 2.75544 0 3.75V26.25C0 27.2446 0.383116 28.1984 1.06507 28.9016C1.74702 29.6049 2.67194 30 3.63636 30H22.9091C23.1984 30 23.4759 29.8815 23.6805 29.6705C23.8851 29.4595 24 29.1734 24 28.875C24 28.5766 23.8851 28.2905 23.6805 28.0795C23.4759 27.8685 23.1984 27.75 22.9091 27.75H3.63636C3.25059 27.75 2.88063 27.592 2.60785 27.3107C2.33506 27.0294 2.18182 26.6478 2.18182 26.25H22.9091C23.1984 26.25 23.4759 26.1315 23.6805 25.9205C23.8851 25.7095 24 25.4234 24 25.125V3.75C24 3.25754 23.9059 2.76991 23.7232 2.31494C23.5405 1.85997 23.2726 1.44657 22.9349 1.09835C22.5973 0.75013 22.1964 0.473907 21.7552 0.285452C21.314 0.0969966 20.8412 0 20.3636 0H3.63636ZM21.8182 24H2.18182V3.75C2.18182 3.35218 2.33506 2.97064 2.60785 2.68934C2.88063 2.40804 3.25059 2.25 3.63636 2.25H20.3636C20.7494 2.25 21.1194 2.40804 21.3922 2.68934C21.6649 2.97064 21.8182 3.35218 21.8182 3.75V24Z" fill="#D3D3D3"/>
</svg>
