<svg width="26" height="24" viewBox="0 0 26 24" fill="none" xmlns="http://www.w3.org/2000/svg">
<rect width="26" height="24" fill="white"/>
<g clip-path="url(#clip0_0_1)">
<rect x="-49" y="-821" width="414" height="896" fill="#F9F9F9"/>
<g opacity="0.05">
<g clip-path="url(#clip1_0_1)">
<path fill-rule="evenodd" clip-rule="evenodd" d="M-52.2536 84.2495C-53.1119 84.2495 -55.8801 83.2184 -56.3501 82.3976L-57.3244 80.2845C-57.8438 79.0903 -57.7132 79.375 -57.633 78.0447C-57.4907 75.6742 -57.9704 74.6401 -55.3734 72.6671C-54.9381 72.3365 -53.78 71.0979 -52.6121 71.0979C-49.2252 71.0979 -48.9088 71.075 -47.7413 72.8914C-46.6522 74.5857 -45.9205 74.0612 -45.2118 75.2444C-44.9247 75.7236 -44.9076 75.8487 -44.8988 76.5688C-44.8832 77.8213 -44.6083 78.8016 -44.9198 79.6662C-45.2769 80.6569 -45.5199 80.9307 -46.2105 81.6437C-47.0816 82.5427 -46.3939 82.4265 -47.7697 83.3415C-49.5079 84.4973 -49.9085 84.25 -52.2541 84.25L-52.2536 84.2495ZM-65.1545 78.7697C-65.1545 82.7232 -63.6619 82.8938 -62.4646 85.3435C-62.1648 85.9568 -61.9085 86.7266 -61.5036 87.2861C-60.5415 88.6149 -59.2347 88.7266 -57.9083 89.649C-57.2295 90.1212 -56.9522 90.6533 -56.2323 91.0457C-55.572 91.4057 -54.8271 91.486 -53.9712 91.6635C-52.5397 91.9596 -50.0752 91.9392 -48.6598 91.5657C-47.0449 91.1394 -46.1817 90.2035 -44.8303 89.4421C-39.4632 86.4165 -39.9919 83.7439 -38.2219 82.4794C-37.7827 82.1657 -37.8086 82.2351 -37.4178 81.8377C-36.9146 81.3251 -36.5752 80.8265 -36.2426 80.1134C-35.0233 77.4982 -34.5714 78.6595 -33.4666 76.9153C-33.0142 76.2013 -32.9041 75.5481 -32.3999 74.8974C-31.8149 74.143 -31.4432 74.2258 -30.7888 73.6169C-29.9696 72.8541 -30.0944 72.7329 -29.5559 71.7681C-28.6188 70.0877 -27.5115 70.0608 -26.6605 68.6926C-26.0956 67.7846 -25.5263 66.8457 -24.7018 66.1227C-22.8902 64.5341 -21.7242 62.1522 -19.8198 60.6883C-18.6298 59.7733 -18.2126 58.4215 -17.031 57.5031C-14.9446 55.8826 -15.306 54.2601 -13.4607 53.2883C-12.5085 52.7871 -11.8096 52.0637 -11.3386 51.0679C-10.5204 49.3392 -9.36322 49.7466 -8.35621 48.0802C-7.88963 47.3088 -7.92044 46.8062 -7.13351 46.2213C-6.42581 45.6958 -6.03259 45.818 -5.45156 45.0137C-4.98791 44.3725 -4.85684 43.638 -4.36531 43.0152C-3.71092 42.186 -3.48545 42.3376 -2.69265 41.7981C-1.22003 40.7954 -1.35845 39.3494 0.00608063 38.5212C1.99223 37.315 1.46794 36.6733 2.79286 35.335C3.38612 34.7357 4.02388 34.5078 4.50122 33.9713C4.9502 33.4662 5.24071 32.7327 5.61828 32.1872C6.65513 30.6894 7.62546 31.0683 8.65888 29.2593C9.40913 27.947 10.6084 27.3382 11.5816 26.2113L13.5282 23.6289C13.9801 23.0799 13.6993 23.3602 14.2496 22.9029C15.3104 22.0209 15.6821 20.3695 16.2665 18.9314C17.1087 16.8587 17.9842 17.1967 19.0895 15.7812L23.3303 10.971C24.4425 10.073 25.8794 9.52051 27.1187 8.80499C27.5251 8.57064 28.5586 7.9379 28.5586 7.35002C28.5586 4.00479 29.2536 4.47997 26.5842 2.42217C25.049 1.23845 25.6055 1.02853 23.502 -0.281337C22.2808 -1.04223 21.7785 -2.32368 21.0331 -3.33588C19.715 -3.34286 17.7538 -3.55277 16.8466 -2.39647C16.4225 -1.85597 16.0503 -1.39824 15.6884 -0.837791C13.6206 2.36583 16.0303 -0.240451 12.2942 3.55703C11.7533 4.10651 11.6095 4.51837 11.0451 5.02248L8.36006 7.58288C7.74822 8.19219 7.57508 8.18869 6.85124 8.60255C2.60065 11.0303 3.55632 12.038 1.48213 13.7234C0.403221 14.5999 -0.222816 14.8383 -1.32227 15.9786C-4.62747 19.4056 -3.34117 17.7821 -7.31739 20.4612C-8.60172 21.3268 -8.71324 22.2298 -9.83568 23.1911C-10.36 23.6404 -10.8525 23.797 -11.3518 24.2028C-12.3584 25.0211 -12.666 26.2262 -13.8016 27.0021C-14.5587 27.5196 -14.5959 27.3147 -15.3021 28.0297C-16.4021 29.1432 -16.4607 29.7225 -17.9529 30.6245C-19.4549 31.5325 -19.4031 32.3762 -20.4864 33.339C-21.6073 34.3358 -22.3718 33.9693 -23.4067 35.4766C-25.0872 37.9253 -25.8956 36.9705 -27.3501 39.4935C-28.0011 40.6219 -29.4556 40.8153 -30.2474 41.8375C-31.6222 43.6131 -30.4343 43.1957 -32.7501 44.4009C-33.3805 44.729 -33.7189 44.9733 -34.2055 45.4744C-36.2421 47.5706 -34.3714 45.9974 -36.9478 47.976C-38.4997 49.1677 -39.582 50.5174 -41.1407 51.7385C-41.6474 52.1349 -42.0651 52.3917 -42.6167 52.7906C-43.1586 53.182 -42.8843 52.9308 -43.2687 53.4049C-45.83 56.5602 -45.7576 54.9387 -48.0045 57.7105C-48.5214 58.3482 -48.7464 58.5681 -49.5363 58.8888C-51.562 59.711 -51.1199 60.1891 -52.2604 61.4107C-52.7529 61.9378 -53.2689 62.0201 -53.869 62.3247C-55.1729 62.9859 -55.5921 63.7054 -56.5937 64.6623C-58.974 66.9345 -60.1429 66.2015 -62.0518 69.6928L-64.0839 72.9184C-65.0196 74.7503 -65.1531 76.5603 -65.1531 78.7692L-65.1545 78.7697Z" fill="#1F319D"/>
<path fill-rule="evenodd" clip-rule="evenodd" d="M38.7706 -12.1948C38.4718 -12.1948 36.9914 -13.035 37.1743 -14.7149C37.4061 -16.845 36.9234 -18.4121 39.4955 -18.5797C41.3637 -18.7013 41.7482 -19.0858 42.7498 -18.2605C43.9314 -17.2872 43.6086 -17.1765 43.6086 -14.3868C43.6086 -13.583 42.496 -12.1948 41.8166 -12.1948H38.7706ZM2.21777 -13.8388C2.43493 -13.418 2.51171 -12.9099 3.25707 -12.341C5.47456 -10.6466 9.68945 -11.7521 11.0682 -11.5481C11.7558 -11.4469 12.6944 -11.4 13.1991 -11.3337C15.9237 -10.9782 17.2213 -11.3367 18.937 -9.87677C19.3879 -9.49283 19.8066 -9.23056 20.3719 -8.96479C21.5325 -8.41931 22.4535 -8.02141 23.6996 -7.60855C25.9377 -6.86661 25.249 -6.44479 26.2634 -5.47248C27.1633 -4.60987 28.0529 -4.69014 28.9993 -3.49845C29.4669 -2.90958 29.6033 -2.51018 29.9838 -1.95871C30.4387 -1.29853 30.6363 -1.30752 31.2481 -0.872726C33.2881 0.576759 32.2898 2.4426 34.6971 5.10921C37.1097 7.78181 36.6045 15.7772 36.6221 19.4061C36.626 20.1829 36.4744 21.2355 36.4837 21.6075C36.4954 22.0687 36.9229 22.8501 37.2017 23.1971C37.6761 23.787 37.9681 23.8174 38.5921 24.1539C41.5325 22.147 40.0794 22.2058 41.4239 21.1961C43.0912 19.9441 42.8349 21.0765 44.4161 18.4009C45.2368 17.0117 46.5231 17.0726 47.4504 15.649C49.9999 11.7329 48.7934 15.3414 51.5664 11.0777C52.0369 10.3542 52.4512 10.1921 53.1433 9.76231C54.7244 8.78003 54.5445 7.73145 55.841 6.6674C56.5218 6.10894 56.8769 6.22262 57.5504 5.48766C58.1368 4.84793 58.105 4.3922 58.6982 3.73552C59.7468 2.57673 60.8565 2.59617 61.6479 1.07987C63.2628 -2.01406 65.8055 -0.225517 65.8373 -6.35653C65.8491 -8.6058 63.7431 -9.21311 63.1665 -9.48087C61.7677 -10.1301 62.4103 -11.6548 60.6643 -12.5922C59.9718 -12.9637 59.3272 -13.0415 58.9075 -13.7241C57.4794 -16.0487 59.2861 -14.8525 56.0591 -16.666C55.2634 -17.1127 55.2668 -17.6592 54.9049 -18.4121C53.9884 -20.3193 52.551 -19.6123 51.7861 -21.0772C51.3972 -21.8227 51.406 -22.3058 50.7326 -22.9141C50.1696 -23.4227 49.5245 -23.4891 48.9577 -23.8565C47.7071 -24.6673 48.3517 -26.1038 46.347 -27.0402C45.4574 -27.4556 45.1414 -27.4177 44.712 -28.2957C43.1709 -31.4445 43.7857 -29.6026 41.7799 -31.1523C41.1886 -31.6091 41.1128 -32.359 40.7191 -32.9932C39.7424 -34.5659 38.3593 -34.0024 37.6683 -35.5457C37.3259 -36.311 37.2687 -36.7842 36.5566 -37.3352C35.8934 -37.8483 35.1353 -37.95 34.6873 -38.3524C33.6822 -39.2559 34.5523 -40.7891 31.8277 -41.2783C30.7111 -41.4787 28.4026 -40.5164 27.6534 -39.9684C27.067 -39.5396 26.8043 -39.0056 26.3353 -38.3893C25.9196 -37.8433 25.496 -37.4733 25.0226 -36.9882C24.4548 -36.4068 23.976 -36.2008 23.5123 -35.605C22.2696 -34.0089 16.7655 -28.7993 16.3737 -28.2693C15.5936 -27.2147 14.6399 -26.3142 13.5796 -25.4546L9.31042 -21.0398C8.85362 -20.4315 8.42567 -20.0745 7.90823 -19.547C6.90904 -18.5288 6.03601 -17.6467 5.04171 -16.6241C3.96524 -15.5166 2.75526 -14.8709 2.21923 -13.8388H2.21777Z" fill="#1F319D"/>
</g>
</g>
<rect opacity="0.4" x="-26" y="-20" width="357" height="63" rx="10" fill="#D6E3FF"/>
<rect x="-10" y="-11" width="45" height="45" rx="10" fill="#C7D9FF"/>
<path d="M8.2 0.75L6.4375 2.5125L9.675 5.75H3C1.6125 5.75 0.5 6.8625 0.5 8.25V20.75C0.5 22.1375 1.6125 23.25 3 23.25H23C24.3875 23.25 25.5 22.1375 25.5 20.75V8.25C25.5 6.8625 24.3875 5.75 23 5.75H16.325L19.5625 2.5125L17.8 0.75L13 5.55L8.2 0.75ZM3 8.25H19.25V20.75H3V8.25ZM22.375 8.25C22.7065 8.25 23.0245 8.3817 23.2589 8.61612C23.4933 8.85054 23.625 9.16848 23.625 9.5C23.625 9.83152 23.4933 10.1495 23.2589 10.3839C23.0245 10.6183 22.7065 10.75 22.375 10.75C22.0435 10.75 21.7255 10.6183 21.4911 10.3839C21.2567 10.1495 21.125 9.83152 21.125 9.5C21.125 9.16848 21.2567 8.85054 21.4911 8.61612C21.7255 8.3817 22.0435 8.25 22.375 8.25ZM22.375 12C22.7065 12 23.0245 12.1317 23.2589 12.3661C23.4933 12.6005 23.625 12.9185 23.625 13.25C23.625 13.5815 23.4933 13.8995 23.2589 14.1339C23.0245 14.3683 22.7065 14.5 22.375 14.5C22.0435 14.5 21.7255 14.3683 21.4911 14.1339C21.2567 13.8995 21.125 13.5815 21.125 13.25C21.125 12.9185 21.2567 12.6005 21.4911 12.3661C21.7255 12.1317 22.0435 12 22.375 12Z" fill="#F9F9F9"/>
</g>
<defs>
<clipPath id="clip0_0_1">
<rect x="-49" y="-821" width="414" height="896" fill="white"/>
</clipPath>
<clipPath id="clip1_0_1">
<rect width="508" height="353" fill="white" transform="translate(-261 -165)"/>
</clipPath>
</defs>
</svg>
